# xmcd
#
# Track frame offsets: 
#        182
#        12542
#        25210
#        36307
#        46997
#        58867
#        68855
#        82882
#        99232
#        111715
#        127240
#        140672
#        155652
#        168160
#        179005
#        197422
#        211237
#        226002
#        243340
#        259462
#        275920
#        290162
#        303182
#        319662
#
# Disc length: 4429 seconds
#
# Revision: 5
# Processed by: cddbd v1.5.2PL0 Copyright (c) Steve Scherf et al.
# Submitted via: ExactAudioCopyFreeDBPlugin 1.0
#
DISCID=6c114b18
DTITLE=Elmore James - King of the Slide Guitars:  The Fire - Fury - En
DTITLE=joy Recordings [Capricorn box set]
DYEAR=1992
DGENRE=Blues
TTITLE0=Got to Move
TTITLE1=Shake Your Moneymaker
TTITLE2=Look on Yonder Wall
TTITLE3=Sunnyland Train
TTITLE4=Mean Mistreatin' Mama
TTITLE5=Go Back Home Again
TTITLE6=You Know You're Wrong
TTITLE7=You Know You Done Me Wrong
TTITLE8=I've Got a Right to Love My Baby
TTITLE9=Every Day I Have the Blues
TTITLE10=Dust My Broom
TTITLE11=It Hurts Me Too
TTITLE12=Talk to Me Baby
TTITLE13=Can't Stop Loving My Baby
TTITLE14=She's Got to Go
TTITLE15=Hand in Hand
TTITLE16=Pickin' the Blues
TTITLE17=Twelve Year Old Boy
TTITLE18=I Believe
TTITLE19=I Gotta Go Now
TTITLE20=Up Jumped Elmore
TTITLE21=Make My Dreams Come True
TTITLE22=Back in Mississippi (A Conversation)
TTITLE23=Blacksnake Blues
EXTD=YEAR: 1992
EXTT0=
EXTT1=
EXTT2=
EXTT3=
EXTT4=
EXTT5=
EXTT6=
EXTT7=
EXTT8=
EXTT9=
EXTT10=
EXTT11=
EXTT12=
EXTT13=
EXTT14=
EXTT15=
EXTT16=
EXTT17=
EXTT18=
EXTT19=
EXTT20=
EXTT21=
EXTT22=
EXTT23=
PLAYORDER=
